<?xml version="1.0" encoding="UTF-8"?>
<svg xmlns="http://www.w3.org/2000/svg" viewBox="0 0 3840 2160" width="3840" height="2160" preserveAspectRatio="xMidYMid slice" style="display:block">
  <defs>
    <filter id="g" x="0" y="0" width="100%" height="100%">
      <feTurbulence type="fractalNoise" baseFrequency="0.85" numOctaves="2" seed="43"/>
      <feColorMatrix values="0 0 0 0 0.83  0 0 0 0 0.63  0 0 0 0 0.35  0 0 0 0.025 0"/>
      <feComposite operator="in" in2="SourceGraphic"/>
    </filter>
  </defs>

  <rect width="3840" height="2160" fill="#0a0a09"/>

  <g stroke="#1a1612" stroke-width="0.5" fill="none" opacity="0.5">
    <line x1="0" y1="540" x2="3840" y2="540"/>
    <line x1="0" y1="1080" x2="3840" y2="1080"/>
    <line x1="0" y1="1620" x2="3840" y2="1620"/>
    <line x1="960" y1="0" x2="960" y2="2160"/>
    <line x1="1920" y1="0" x2="1920" y2="2160"/>
    <line x1="2880" y1="0" x2="2880" y2="2160"/>
  </g>

  <g transform="translate(1920 1080) scale(3.6)">
    <g stroke="#3a3328" stroke-width="0.3" fill="none">
      <circle cx="0" cy="0" r="120"/>
      <line x1="-120" y1="0" x2="120" y2="0"/>
      <line x1="0" y1="-120" x2="0" y2="120"/>
      <line x1="0" y1="0" x2="103" y2="62"/>
      <line x1="0" y1="0" x2="103" y2="-62"/>
    </g>

    <g stroke="#5a5448" stroke-width="0.3" fill="none" stroke-dasharray="1.5 2">
      <circle cx="0" cy="0" r="105"/>
      <circle cx="0" cy="0" r="50"/>
    </g>

    <circle cx="0" cy="0" r="78" fill="none" stroke="#d4a059" stroke-width="14"/>
    <path d="M 68 0 A 68 68 0 1 0 0 68" fill="none" stroke="#0a0a09" stroke-width="22"/>
    <line x1="62" y1="0" x2="78" y2="0" stroke="#0a0a09" stroke-width="22"/>
    <circle cx="-32" cy="0" r="8" fill="#d4a059"/>
    <circle cx="32" cy="0" r="8" fill="#d4a059"/>

    <g fill="#8a6838" font-family="'JetBrains Mono', ui-monospace, monospace" font-size="6" letter-spacing="0.2">
      <text x="-32" y="28" text-anchor="middle">rG</text>
      <text x="32" y="28" text-anchor="middle">vH</text>
      <text x="83" y="4" text-anchor="start">C</text>
    </g>
  </g>

  <g stroke="#2a2720" stroke-width="0.75" fill="none">
    <line x1="320" y1="1840" x2="3520" y2="1840"/>
    <line x1="320" y1="1834" x2="320" y2="1846"/>
    <line x1="3520" y1="1834" x2="3520" y2="1846"/>
  </g>

  <text x="1920" y="1960" text-anchor="middle"
        font-family="'Fraunces', ui-serif, Georgia, serif" font-style="italic"
        font-size="54" letter-spacing="2"
        fill="#a39d8e">
    C = <tspan fill="#d4a059">r</tspan>G + <tspan fill="#d4a059">v</tspan>H
  </text>

  <text x="160" y="180" font-family="'JetBrains Mono', ui-monospace, monospace" font-size="22" letter-spacing="4" fill="#5a5448">FIG. I · CONSTRUCTION GRID</text>
  <text x="3680" y="180" text-anchor="end" font-family="'JetBrains Mono', ui-monospace, monospace" font-size="22" letter-spacing="4" fill="#5a5448">COINCYNC MARK</text>

  <text x="160" y="2080" font-family="'JetBrains Mono', ui-monospace, monospace" font-size="22" letter-spacing="4" fill="#5a5448">CYNC LAB</text>
  <text x="3680" y="2080" text-anchor="end" font-family="'JetBrains Mono', ui-monospace, monospace" font-size="22" letter-spacing="4" fill="#5a5448">CONSTRUCTION · 06</text>

  <rect width="3840" height="2160" fill="#0a0a09" filter="url(#g)" opacity="0.3" pointer-events="none"/>
</svg>
